<svg width="38" height="36" viewBox="0 0 38 36" fill="none" xmlns="http://www.w3.org/2000/svg">
<rect x="3.14795" y="4.83984" width="34.6745" height="30.6295" rx="5.71751" fill="#6C5FBC"/>
<rect x="0.9603" y="1.58042" width="33.0215" height="28.9765" rx="4.891" fill="#DBD9EE" stroke="#6C5FBC" stroke-width="1.65302"/>
<path d="M26.8977 10.6387L8.11015 10.5556" stroke="#6C5FBC" stroke-width="1.70989" stroke-linecap="round" stroke-linejoin="round"/>
<path d="M26.8849 14.4014L22.706 14.3829C20.9774 14.3753 19.5795 12.6834 19.5858 10.6069C19.5922 8.5303 21.0005 6.85083 22.729 6.85848L26.908 6.87695" stroke="#6C5FBC" stroke-width="1.70989" stroke-linecap="round" stroke-linejoin="round"/>
<path d="M14.3763 22.6749L8.91664 22.6142C8.46929 22.6122 8.09445 22.1708 8.08592 21.6333L8.0496 20.2163C8.04115 19.6544 8.4188 19.1797 8.88649 19.1817L14.2852 19.2422L14.3763 22.6749Z" stroke="#6C5FBC" stroke-width="1.70989" stroke-linecap="round" stroke-linejoin="round"/>
<path d="M22.9509 24.7149L15.2338 24.6197C14.7864 24.6177 14.4115 24.1763 14.403 23.6388L14.3047 19.2287L26.8412 19.3818L26.8496 19.9438C26.9127 22.607 25.1572 24.7491 22.9509 24.7149Z" stroke="#6C5FBC" stroke-width="1.70989" stroke-linecap="round" stroke-linejoin="round"/>
</svg>
